<svg width="136" height="41" viewBox="0 0 136 41" fill="none" xmlns="http://www.w3.org/2000/svg">
<path d="M56.1959 29.6382C54.708 29.6382 53.394 29.387 52.2539 28.8845C51.1138 28.3628 50.2152 27.6285 49.5582 26.6817C48.9012 25.7155 48.5631 24.5464 48.5437 23.1744H52.4568C52.4954 24.1213 52.8336 24.9232 53.4713 25.5802C54.1283 26.2179 55.0268 26.5367 56.1669 26.5367C57.1524 26.5367 57.935 26.3048 58.5147 25.8411C59.0944 25.358 59.3843 24.7203 59.3843 23.928C59.3843 23.0971 59.1234 22.4498 58.6017 21.986C58.0993 21.5223 57.4229 21.1454 56.5727 20.8556C55.7225 20.5657 54.8142 20.2566 53.8481 19.9281C52.2829 19.387 51.0848 18.6913 50.2539 17.8411C49.4423 16.9909 49.0365 15.8604 49.0365 14.4498C49.0172 13.2518 49.2974 12.2276 49.8771 11.3774C50.4761 10.5078 51.2877 9.84114 52.3118 9.37737C53.336 8.89428 54.5147 8.65274 55.8481 8.65274C57.2007 8.65274 58.3891 8.89428 59.4133 9.37737C60.4567 9.86046 61.2683 10.5368 61.848 11.4063C62.4471 12.2759 62.7659 13.3097 62.8046 14.5078H58.8336C58.8142 13.7928 58.534 13.1648 57.993 12.6237C57.4712 12.0634 56.7369 11.7832 55.7901 11.7832C54.9785 11.7638 54.2925 11.9667 53.7321 12.3919C53.1911 12.7976 52.9205 13.3967 52.9205 14.1889C52.9205 14.8653 53.1331 15.4063 53.5582 15.8121C53.9833 16.1986 54.563 16.5271 55.2973 16.7976C56.0316 17.0682 56.8722 17.358 57.8191 17.6672C58.8239 18.015 59.7418 18.4208 60.5727 18.8846C61.4036 19.3483 62.0703 19.9667 62.5727 20.7396C63.0751 21.4933 63.3263 22.4691 63.3263 23.6672C63.3263 24.73 63.0558 25.7155 62.5147 26.6237C61.9736 27.5319 61.1717 28.2662 60.1089 28.8266C59.0461 29.3676 57.7418 29.6382 56.1959 29.6382ZM66.4764 29.2903V8.42085H70.1865V17.1165C70.6696 16.3242 71.317 15.7059 72.1286 15.2614C72.9595 14.7976 73.9063 14.5658 74.9691 14.5658C76.7469 14.5658 78.1189 15.1261 79.0851 16.2469C80.0706 17.3677 80.5633 19.0102 80.5633 21.1744V29.2903H76.8822V21.5223C76.8822 20.2855 76.631 19.3387 76.1286 18.6817C75.6455 18.0247 74.8725 17.6962 73.8097 17.6962C72.7662 17.6962 71.8967 18.0633 71.201 18.7976C70.5247 19.5319 70.1865 20.5561 70.1865 21.8701V29.2903H66.4764ZM91.0096 29.6382C89.6183 29.6382 88.3623 29.3193 87.2415 28.6817C86.1401 28.044 85.2608 27.1647 84.6038 26.044C83.9662 24.9039 83.6473 23.5899 83.6473 22.102C83.6473 20.614 83.9758 19.3097 84.6328 18.1889C85.2898 17.0488 86.1691 16.16 87.2705 15.5223C88.3913 14.8846 89.6473 14.5658 91.0386 14.5658C92.4106 14.5658 93.6473 14.8846 94.7487 15.5223C95.8695 16.16 96.7487 17.0488 97.3864 18.1889C98.0434 19.3097 98.3719 20.614 98.3719 22.102C98.3719 23.5899 98.0434 24.9039 97.3864 26.044C96.7487 27.1647 95.8695 28.044 94.7487 28.6817C93.628 29.3193 92.3816 29.6382 91.0096 29.6382ZM91.0096 26.4208C91.9758 26.4208 92.8164 26.0633 93.5314 25.3483C94.2463 24.614 94.6038 23.5319 94.6038 22.102C94.6038 20.672 94.2463 19.5996 93.5314 18.8846C92.8164 18.1503 91.9855 17.7831 91.0386 17.7831C90.0531 17.7831 89.2029 18.1503 88.4879 18.8846C87.7922 19.5996 87.4444 20.672 87.4444 22.102C87.4444 23.5319 87.7922 24.614 88.4879 25.3483C89.2029 26.0633 90.0434 26.4208 91.0096 26.4208ZM101.689 35.6671V14.9136H104.993L105.399 16.9715C105.863 16.3339 106.472 15.7735 107.225 15.2904C107.998 14.8073 108.993 14.5658 110.211 14.5658C111.564 14.5658 112.771 14.8943 113.834 15.5513C114.897 16.2083 115.737 17.1068 116.356 18.2469C116.974 19.387 117.283 20.6817 117.283 22.1309C117.283 23.5802 116.974 24.8749 116.356 26.015C115.737 27.1358 114.897 28.0246 113.834 28.6817C112.771 29.3193 111.564 29.6382 110.211 29.6382C109.129 29.6382 108.182 29.4353 107.37 29.0295C106.559 28.6237 105.902 28.0536 105.399 27.3193V35.6671H101.689ZM109.428 26.3918C110.607 26.3918 111.583 25.9957 112.356 25.2034C113.129 24.4111 113.515 23.387 113.515 22.1309C113.515 20.8749 113.129 19.8411 112.356 19.0295C111.583 18.2179 110.607 17.8121 109.428 17.8121C108.23 17.8121 107.245 18.2179 106.472 19.0295C105.718 19.8218 105.341 20.8459 105.341 22.102C105.341 23.358 105.718 24.3918 106.472 25.2034C107.245 25.9957 108.23 26.3918 109.428 26.3918ZM121.093 35.6671L124.426 28.3338H123.556L117.962 14.9136H121.991L126.02 25.0295L130.223 14.9136H134.165L125.035 35.6671H121.093Z" fill="#201F22"/>
<mask id="mask0_14_2867" style="mask-type:alpha" maskUnits="userSpaceOnUse" x="0" y="0" width="37" height="41">
<path d="M14.8369 1.17144C16.9856 -0.0691088 19.6329 -0.0691105 21.7816 1.17144L33.1461 7.73277C35.2948 8.97332 36.6185 11.266 36.6185 13.7471V26.8697C36.6185 29.3508 35.2948 31.6434 33.1462 32.884L21.7816 39.4453C19.6329 40.6859 16.9856 40.6859 14.8369 39.4453L3.47235 32.884C1.32365 31.6434 0 29.3508 0 26.8697V13.7471C0 11.266 1.32365 8.97332 3.47235 7.73277L14.8369 1.17144Z" fill="#C4C4C4"/>
</mask>
<g mask="url(#mask0_14_2867)">
<rect width="23.1744" height="23.1744" transform="matrix(0.866025 0.5 -0.866025 0.5 18.3096 -1.17798)" fill="#CFCFCF"/>
<rect width="21.3236" height="21.3236" transform="matrix(0.866025 0.5 -2.20305e-08 1 -0.157715 10.5769)" fill="#767676"/>
<rect width="21.3236" height="21.3236" transform="matrix(0.866025 -0.5 2.20305e-08 1 18.3096 21.2415)" fill="#201F22"/>
</g>
</svg>
